<mxfile host="65bd71144e">
    <diagram id="lT8_0EZWUwwVtNEW-hra" name="Page-1">
        <mxGraphModel dx="824" dy="503" grid="1" gridSize="10" guides="1" tooltips="1" connect="1" arrows="1" fold="1" page="1" pageScale="1" pageWidth="850" pageHeight="1100" math="0" shadow="0">
            <root>
                <mxCell id="0"/>
                <mxCell id="1" parent="0"/>
                <mxCell id="2" value="Home&lt;br&gt;" style="whiteSpace=wrap;html=1;" vertex="1" parent="1">
                    <mxGeometry x="220" y="150" width="120" height="60" as="geometry"/>
                </mxCell>
                <mxCell id="3" value="UserCard" style="whiteSpace=wrap;html=1;" vertex="1" parent="1">
                    <mxGeometry x="100" y="240" width="120" height="60" as="geometry"/>
                </mxCell>
                <mxCell id="4" value="CPU Card" style="whiteSpace=wrap;html=1;" vertex="1" parent="1">
                    <mxGeometry x="280" y="240" width="120" height="60" as="geometry"/>
                </mxCell>
                <mxCell id="5" value="Generate New Card" style="whiteSpace=wrap;html=1;" vertex="1" parent="1">
                    <mxGeometry x="380" y="150" width="120" height="60" as="geometry"/>
                </mxCell>
                <mxCell id="7" value="Learn More" style="whiteSpace=wrap;html=1;" vertex="1" parent="1">
                    <mxGeometry x="530" y="150" width="120" height="60" as="geometry"/>
                </mxCell>
                <mxCell id="8" value="Card Inventory" style="whiteSpace=wrap;html=1;" vertex="1" parent="1">
                    <mxGeometry x="690" y="150" width="120" height="60" as="geometry"/>
                </mxCell>
                <mxCell id="10" value="" style="edgeStyle=none;orthogonalLoop=1;jettySize=auto;html=1;entryX=0.5;entryY=0;entryDx=0;entryDy=0;exitX=0.5;exitY=1;exitDx=0;exitDy=0;" edge="1" parent="1" source="2" target="3">
                    <mxGeometry width="80" relative="1" as="geometry">
                        <mxPoint x="250" y="360" as="sourcePoint"/>
                        <mxPoint x="400" y="285" as="targetPoint"/>
                        <Array as="points"/>
                    </mxGeometry>
                </mxCell>
                <mxCell id="11" value="" style="edgeStyle=none;orthogonalLoop=1;jettySize=auto;html=1;entryX=0.5;entryY=0;entryDx=0;entryDy=0;" edge="1" parent="1" target="4">
                    <mxGeometry width="80" relative="1" as="geometry">
                        <mxPoint x="280" y="210" as="sourcePoint"/>
                        <mxPoint x="360" y="210" as="targetPoint"/>
                        <Array as="points"/>
                    </mxGeometry>
                </mxCell>
                <mxCell id="12" value="App" style="whiteSpace=wrap;html=1;" vertex="1" parent="1">
                    <mxGeometry x="440" y="40" width="120" height="60" as="geometry"/>
                </mxCell>
                <mxCell id="13" value="" style="edgeStyle=none;orthogonalLoop=1;jettySize=auto;html=1;entryX=0.5;entryY=0;entryDx=0;entryDy=0;exitX=0.5;exitY=1;exitDx=0;exitDy=0;" edge="1" parent="1" source="12" target="2">
                    <mxGeometry width="80" relative="1" as="geometry">
                        <mxPoint x="470" y="100" as="sourcePoint"/>
                        <mxPoint x="550" y="100" as="targetPoint"/>
                        <Array as="points"/>
                    </mxGeometry>
                </mxCell>
                <mxCell id="14" value="" style="edgeStyle=none;orthogonalLoop=1;jettySize=auto;html=1;entryX=0.5;entryY=0;entryDx=0;entryDy=0;exitX=0.5;exitY=1;exitDx=0;exitDy=0;" edge="1" parent="1" source="12" target="5">
                    <mxGeometry width="80" relative="1" as="geometry">
                        <mxPoint x="470" y="100" as="sourcePoint"/>
                        <mxPoint x="290" y="160" as="targetPoint"/>
                        <Array as="points"/>
                    </mxGeometry>
                </mxCell>
                <mxCell id="15" value="" style="edgeStyle=none;orthogonalLoop=1;jettySize=auto;html=1;entryX=0.5;entryY=0;entryDx=0;entryDy=0;exitX=0.387;exitY=0.99;exitDx=0;exitDy=0;exitPerimeter=0;" edge="1" parent="1" source="12" target="7">
                    <mxGeometry width="80" relative="1" as="geometry">
                        <mxPoint x="480" y="110" as="sourcePoint"/>
                        <mxPoint x="450" y="160" as="targetPoint"/>
                        <Array as="points"/>
                    </mxGeometry>
                </mxCell>
                <mxCell id="16" value="" style="edgeStyle=none;orthogonalLoop=1;jettySize=auto;html=1;entryX=0.5;entryY=0;entryDx=0;entryDy=0;exitX=0.5;exitY=1;exitDx=0;exitDy=0;" edge="1" parent="1" source="12" target="8">
                    <mxGeometry width="80" relative="1" as="geometry">
                        <mxPoint x="500.00000000000006" y="99.99999999999997" as="sourcePoint"/>
                        <mxPoint x="618.56" y="150.6" as="targetPoint"/>
                        <Array as="points"/>
                    </mxGeometry>
                </mxCell>
            </root>
        </mxGraphModel>
    </diagram>
</mxfile>